<?xml version="1.0"?>
<svg xmlns="http://www.w3.org/2000/svg" viewBox="0 0 128 128"><g><path d="M105.924,59.665a1.733,1.733,0,0,0,.167-.372,1.751,1.751,0,0,0-.587-1.837c-3.346-2.693-8.569-4.578-12.961-5.789A22.871,22.871,0,0,1,97.6,44.749a1.752,1.752,0,0,0,.152-2.471l-3.974-4.5a1.749,1.749,0,0,0-2.47-.152,30.125,30.125,0,0,0-5.726,7.017c-3.324-8.2-10.1-15.1-19-19.345a1.7,1.7,0,0,0-.7-2.145c-3.668-2.235-9.093-3.422-13.606-4.05a22.947,22.947,0,0,1,4.115-7.519,1.75,1.75,0,0,0-.171-2.469L51.694,5.18a1.75,1.75,0,0,0-2.469.171,33.068,33.068,0,0,0-6.208,11.5c-.01.025-.024.047-.032.073q-.275.838-.523,1.71a53.844,53.844,0,0,0-12.526,2.589,1.736,1.736,0,0,0-.784,2.723C14.438,29.636,4.75,42.292,4.75,56.23c0,17.89,15.377,32.777,35.992,35.118a34.38,34.38,0,0,0,8.736,17.472,45.18,45.18,0,0,0,27.683,14.005,49.435,49.435,0,0,0,6.433.424,44.2,44.2,0,0,0,23.94-6.8c8.726-5.61,14.212-13.9,15.451-23.335C124.675,80.278,118.056,67.53,105.924,59.665Zm-13.559-18.2,1.661,1.879a30.382,30.382,0,0,0-5.566,8.783,1.749,1.749,0,0,0,1.186,2.4,57.369,57.369,0,0,1,8.9,2.915,25.985,25.985,0,0,1-5.35-.449,1.75,1.75,0,0,0-1.51,3.044,46.855,46.855,0,0,1,4.081,3.892,15.844,15.844,0,0,1-6.246-2.321,1.751,1.751,0,0,0-2.66.62,29.473,29.473,0,0,1-3.48,5.447c-.343-1.493-.751-3.465-1.093-5.662A1.749,1.749,0,0,0,80.076,60.6a28.8,28.8,0,0,1-5.6.948,17.332,17.332,0,0,0,3.439-3.11,1.75,1.75,0,0,0-.659-2.725,16.4,16.4,0,0,1-3.2-1.95,50.848,50.848,0,0,1,7.463-.394q-.355,1-.683,2.028a1.75,1.75,0,1,0,3.338,1.053c.46-1.456.971-2.851,1.517-4.187q.291-.711.6-1.394c.047-.106.095-.21.144-.315A32.211,32.211,0,0,1,92.365,41.465Zm-50.8-19.232c-.147.691-.286,1.391-.412,2.1a1.751,1.751,0,0,0,1.42,2.027,1.775,1.775,0,0,0,.306.027A1.752,1.752,0,0,0,44.6,24.941c.264-1.5.589-2.953.958-4.351q.195-.738.406-1.449c.035-.118.071-.234.106-.35a32.208,32.208,0,0,1,4.7-9.775l1.892,1.646A30.379,30.379,0,0,0,48.288,20.1a1.749,1.749,0,0,0,1.488,2.226,57.309,57.309,0,0,1,9.2,1.73,25.1,25.1,0,0,1-5.362.252,1.75,1.75,0,0,0-1.1,3.216,46.741,46.741,0,0,1,4.556,3.328,15.85,15.85,0,0,1-6.5-1.49,1.751,1.751,0,0,0-2.555.963,29.455,29.455,0,0,1-2.741,5.854c-.533-1.434-1.2-3.334-1.822-5.473a1.749,1.749,0,0,0-1.679-1.257,1.734,1.734,0,0,0-.7.146,29.067,29.067,0,0,1-5.419,1.658,17.31,17.31,0,0,0,2.991-3.52,1.752,1.752,0,0,0-1.009-2.616A16.364,16.364,0,0,1,34.219,23.6,50.8,50.8,0,0,1,41.566,22.233ZM8.25,56.23c0-13.065,9.647-24.914,24.082-29.7A19.683,19.683,0,0,0,34.361,27.6a22.38,22.38,0,0,1-4.289,3.51l-.548.371a1.75,1.75,0,0,0,.417,3.09c3.34,1.171,8.1-.147,10.713-1.068,1.251,3.924,2.445,6.683,2.5,6.815a1.749,1.749,0,0,0,1.255,1.018,1.806,1.806,0,0,0,.35.035,1.753,1.753,0,0,0,1.2-.479c2.2-2.087,3.842-5.551,4.7-7.668,4.263,1.5,10.02,1.145,10.3,1.127a1.748,1.748,0,0,0,1.59-2.137c-.319-1.388-1.984-3.072-3.877-4.6,1.153-.138,2.258-.318,3.23-.5,10.783,4.07,18.729,12.148,21.433,21.771-.157.341-.316.678-.468,1.028a54.135,54.135,0,0,0-12.757.933,1.736,1.736,0,0,0-1.127,2.607c-15.335,3.722-26.591,15-28.406,28.824a30.81,30.81,0,0,0-.225,5.5C21.914,85.365,8.25,72.1,8.25,56.23ZM119.515,92.662c-1.1,8.4-6.03,15.8-13.873,20.847a41.724,41.724,0,0,1-28.025,5.845,41.687,41.687,0,0,1-25.55-12.888c-6.273-6.9-9.119-15.328-8.012-23.729,1.7-12.956,12.815-23.445,27.759-26.307a20.1,20.1,0,0,0,1.859,1.326,22.408,22.408,0,0,1-4.709,2.92c-.221.108-.419.207-.592.3a1.75,1.75,0,0,0,.01,3.118c3.162,1.6,8.053.912,10.762.339.727,4.052,1.551,6.944,1.59,7.083a1.75,1.75,0,0,0,2.71.933c2.456-1.781,4.533-5,5.662-6.988,4.031,2.046,9.786,2.443,10.066,2.461a1.721,1.721,0,0,0,1.369-.527,1.75,1.75,0,0,0,.486-1.385c-.134-1.417-1.566-3.3-3.245-5.067,1.169.019,2.3-.016,3.289-.07C113.921,67.772,121.156,80.2,119.515,92.662Z"/><path d="M50.906,93.015A1.75,1.75,0,0,0,47.578,94.1a28.267,28.267,0,0,0,3.015,6.36,1.751,1.751,0,0,0,1.48.812,1.731,1.731,0,0,0,.935-.272,1.749,1.749,0,0,0,.541-2.415A24.678,24.678,0,0,1,50.906,93.015Z"/></g></svg>
